<!-- Modified pencil icon from https://thenounproject.com/icon/pencil-407419/ -->
<svg xmlns="http://www.w3.org/2000/svg" width="32" height="32" viewBox="0 0 100 125">
  <!-- Cursor outline -->
  <path fill="#fff" stroke="#fff" stroke-width="6" stroke-linejoin="round" stroke-linecap="round" d="M74.15 20.4Q71.6 18 68.4 18 65.15 18 62.75 20.4L28.45 54.75Q26.9 56.25 24.6 59.45 22.15 62.95 22 64.45L18 82 35.7 78Q43.8 73.35 45.45 71.7L79.75 37.45Q82 35 82 31.75 82 28.5 79.75 26L74.15 20.4Z"/>
  <!-- Fills behind -->
  <path fill="#fff" d="M65.6 23.25Q66.75 22 68.4 22 70 22 71.25 23.25L76.9 28.9Q78 30 78 31.75 78 33.45 76.9 34.5L71.25 40.25 59.95 28.9 65.6 23.25Z"/>
  <path fill="#fff" d="M57.1 31.75 68.4 43 42.5 68.95Q41.85 69.6 38.6 71.6L28.2 61.25 31.2 57.6 57.1 31.75Z"/>
  <path fill="#000" d="m25.53 63.77 11.15 10.46-1.11.76-13.32 2.73 3.16-13.19V63.95Z"/>
  <!-- Contoured pen -->
  <path fill="#000" d="M74.15 20.4Q71.6 18 68.4 18 65.15 18 62.75 20.4L28.45 54.75Q26.9 56.25 24.6 59.45 22.15 62.95 22 64.45L18 82 35.7 78Q43.8 73.35 45.45 71.7L79.75 37.45Q82 35 82 31.75 82 28.5 79.75 26L74.15 20.4M65.6 23.25Q66.75 22 68.4 22 70 22 71.25 23.25L76.9 28.9Q78 30 78 31.75 78 33.45 76.9 34.5L71.25 40.25 59.95 28.9 65.6 23.25M57.1 31.75 68.4 43 42.5 68.95Q41.85 69.6 38.6 71.6L28.2 61.25 31.2 57.6 57.1 31.75M26.1 64.7 35.1 73.7 34.2 74.35 23.45 76.7 26 65.35 26 64.85 26.1 64.7Z"/>
</svg>
