<svg class="typst-doc" viewBox="0 0 841.8897637795276 473.56299212598424" width="841.8897637795276pt" height="473.56299212598424pt" xmlns="http://www.w3.org/2000/svg" xmlns:xlink="http://www.w3.org/1999/xlink" xmlns:h5="http://www.w3.org/1999/xhtml">
    <path class="typst-shape" fill="#ffffff" fill-rule="nonzero" d="M 0 0v 473.563 h 841.8898 v -473.563 Z "/>
    <g>
        <g class="typst-text" transform="matrix(1 0 0 -1 292.5310818897638 42.72)">
            <use xlink:href="#g8353D325762C4CF8A22E7E963ECCAA32" x="0" y="0" fill="#000000" fill-rule="nonzero"/>
            <use xlink:href="#gFE082BB1019CEF39D8D6288DF567EE66" x="19.940399999999997" y="0" fill="#000000" fill-rule="nonzero"/>
            <use xlink:href="#gE9EDCA50C273158E281EBC8849C24F7A" x="27.248399999999997" y="0" fill="#000000" fill-rule="nonzero"/>
            <use xlink:href="#gDB0E7F1F44878A25781C0CB00EFCDB86" x="45.239999999999995" y="0" fill="#000000" fill-rule="nonzero"/>
            <use xlink:href="#g2D8EC455215C24D2EC3C3F0870B32FC4" x="62.22239999999999" y="0" fill="#000000" fill-rule="nonzero"/>
            <use xlink:href="#gE9EDCA50C273158E281EBC8849C24F7A" x="89.60999999999999" y="0" fill="#000000" fill-rule="nonzero"/>
            <use xlink:href="#gDB0E7F1F44878A25781C0CB00EFCDB86" x="107.60159999999999" y="0" fill="#000000" fill-rule="nonzero"/>
            <use xlink:href="#gCC6E1B6A65F71D243195F6583B0719A1" x="124.58399999999999" y="0" fill="#000000" fill-rule="nonzero"/>
            <use xlink:href="#g2D8EC455215C24D2EC3C3F0870B32FC4" x="152.21519999999998" y="0" fill="#000000" fill-rule="nonzero"/>
            <use xlink:href="#gB1D0E97AB25695CA5B9CA118579466B7" x="179.60279999999997" y="0" fill="#000000" fill-rule="nonzero"/>
            <use xlink:href="#g5DC9CFDBD6ADD4D15A81AC091BCB7F3E" x="190.56479999999996" y="0" fill="#000000" fill-rule="nonzero"/>
            <use xlink:href="#g365E3A5DC16ED32C7D9381CD8A875339" x="215.82959999999997" y="0" fill="#000000" fill-rule="nonzero"/>
            <use xlink:href="#gABA6EF74FD2BD90082064AC2DAF8D236" x="235.49159999999998" y="0" fill="#000000" fill-rule="nonzero"/>
            <use xlink:href="#g70F8948ED45F37930C97E9BFD5D91C93" x="253.06559999999996" y="0" fill="#000000" fill-rule="nonzero"/>
        </g>
        <g class="typst-group">
            <g>
                <g class="typst-text" transform="matrix(1 0 0 -1 812.9937637795275 451.6365921259843)">
                    <use xlink:href="#gFFC15253E801554D26F885CC2D235476" x="0" y="0" fill="#aaaaaa" fill-rule="nonzero"/>
                </g>
            </g>
        </g>
    </g>
    <defs id="glyph">
        <symbol id="g8353D325762C4CF8A22E7E963ECCAA32" overflow="visible">
            <path d="M 0 0m 9.7788 -0.174 h 0.8699999 l 10.683599 23.9424 h -3.514799 l -7.5516005 -16.9476 l -7.4124 16.9476 h -3.5496001 Z "/>
        </symbol>
        <symbol id="gFE082BB1019CEF39D8D6288DF567EE66" overflow="visible">
            <path d="M 0 0m 2.088 0 h 3.1320002 v 15.6948 h -3.1320002 Z m -0.24360001 20.3232 c 0 -1.0091991 0.8003999 -1.8096008 1.8096 -1.8096008 c 1.0091999 0 1.8096001 0.8004017 1.8096001 1.8096008 c 0 1.0091991 -0.80040026 1.8096008 -1.8096001 1.8096008 c -1.0092001 0 -1.8096 -0.8004017 -1.8096 -1.8096008 Z "/>
        </symbol>
        <symbol id="gE9EDCA50C273158E281EBC8849C24F7A" overflow="visible">
            <path d="M 0 0m 12.8064 0.87 v -0.87 h 3.132 v 23.7684 h -3.132 v -8.9436 c -1.1831999 0.83519936 -2.5056 1.2180004 -4.0716 1.2180004 c -4.4892 0 -7.6908 -3.3060007 -7.6908 -8.178001 c 0 -4.8719997 3.2016 -8.1779995 7.6908 -8.1779995 c 1.566 0 2.8884 0.348 4.0716 1.1832 Z m 0 2.6100001 c -1.0092001 -0.7307999 -2.0531998 -1.0788 -3.2712002 -1.0788 c -3.1668 0 -5.1504 2.0532 -5.1504 5.4983997 c 0 3.4452 1.9836001 5.4983997 5.1504 5.4983997 c 1.2180004 0 2.262 -0.34799957 3.2712002 -1.0787992 Z "/>
        </symbol>
        <symbol id="gDB0E7F1F44878A25781C0CB00EFCDB86" overflow="visible">
            <path d="M 0 0m 4.2804003 9.5352 c 0.45239973 2.4708004 1.9487996 3.7932005 4.3499994 3.7932005 c 2.1576004 0 3.758401 -1.4964008 3.9672003 -3.7932005 Z m 11.484 -7.8648 v 3.132 c -2.3316002 -1.4964001 -4.4892006 -2.2272 -6.4728003 -2.2272 c -2.9580002 0 -4.8372 1.7399998 -5.0112 4.7328 h 11.762401 v 0.4524002 c 0 5.1503997 -2.9232006 8.247599 -7.3776007 8.247599 c -4.5936003 0 -7.6908 -3.2363997 -7.6908 -7.899599 c 0 -5.0460005 3.132 -8.4564 8.1432 -8.4564 c 2.3663998 0 4.5587997 0.6612 6.6468 2.0184 Z "/>
        </symbol>
        <symbol id="g2D8EC455215C24D2EC3C3F0870B32FC4" overflow="visible">
            <path d="M 0 0m 0.97440004 7.8648 c 0 -4.5936003 3.6887999 -8.2128 8.351999 -8.2128 c 2.2272005 0 4.2456007 0.8004 5.8464003 2.3664 c 1.566 1.5312002 2.4708004 3.6888 2.4708004 5.8464003 c 0 2.1924005 -0.87000084 4.176 -2.4708004 5.7768006 c -1.566 1.5311995 -3.6191998 2.4012003 -5.8464003 2.4012003 c -4.698 0 -8.351999 -3.6540003 -8.351999 -8.178001 Z m 3.2712002 0 c 0 2.8884006 2.262 5.1852 5.046 5.1852 c 2.7840004 0 5.0459995 -2.2967997 5.0459995 -5.1852 c 0 -2.9232001 -2.2619991 -5.2200003 -5.0459995 -5.2200003 c -2.784 0 -5.046 2.2620003 -5.046 5.2200003 Z "/>
        </symbol>
        <symbol id="gCC6E1B6A65F71D243195F6583B0719A1" overflow="visible">
            <path d="M 0 0m 1.9836 0 h 3.132 v 11.31 c 1.1483998 1.4267998 2.262 2.0184002 3.8975997 2.0184002 c 2.262 0 3.3060007 -1.1832008 3.3060007 -3.7236004 v -9.6048 h 3.0971994 v 11.31 c 1.1484003 1.4267998 2.262 2.0184002 3.8976011 2.0184002 c 2.2619991 0 3.3059998 -1.1832008 3.3059998 -3.7236004 v -9.6048 h 3.132 v 10.4052 c 0 3.4452 -2.1228008 5.5332003 -5.533201 5.5332003 c -2.0184002 0 -3.5844002 -0.8699999 -5.393999 -2.6448002 c -1.0788002 1.8444004 -2.5752 2.6448002 -4.8720007 2.6448002 c -1.8095999 0 -3.3059998 -0.6960001 -4.8371997 -2.1576004 v 1.9140005 h -3.132 Z "/>
        </symbol>
        <symbol id="gB1D0E97AB25695CA5B9CA118579466B7" overflow="visible">
            <path d="M 0 0m 8.4564 -7.8648 h 1.9836006 c -3.7584004 5.3244 -5.6028004 10.5444 -5.6028004 15.694799 c 0 5.8812 1.9836001 11.344801 6.0204 16.321201 h -1.9140005 c -4.6979995 -5.394001 -7.0643997 -10.474801 -7.0643997 -16.147202 c 0 -5.7071996 2.1576 -10.7184 6.5772 -15.868799 Z "/>
        </symbol>
        <symbol id="g5DC9CFDBD6ADD4D15A81AC091BCB7F3E" overflow="visible">
            <path d="M 0 0m 2.4012 23.7684 v -13.7808 c 0 -2.6100001 0.06959987 -4.6632004 1.6703999 -6.6468 c 1.9836001 -2.436 4.9068003 -3.7584 8.560801 -3.7584 c 6.1247997 0 10.231199 3.654 10.231199 8.9088 v 15.2772 h -3.375599 v -15.1728 c 0 -3.4452 -2.7144012 -5.8116 -6.8556004 -5.8116 c -2.4708004 0 -4.3848 0.8352001 -5.7768006 2.4708 c -1.0439997 1.2180004 -1.0787997 2.7491999 -1.0787997 4.8720007 v 13.6416 Z "/>
        </symbol>
        <symbol id="g365E3A5DC16ED32C7D9381CD8A875339" overflow="visible">
            <path d="M 0 0m 5.916 13.4676 v 7.412401 h 2.8188004 c 3.2016 0 4.7327995 -1.009201 4.7327995 -3.6888008 c 0 -2.5056 -1.566 -3.7236004 -4.7327995 -3.7236004 Z m -3.4104 -13.4676 h 3.4104 v 10.614 h 1.0092001 c 2.6796002 0 3.8280005 -1.566 5.6724 -4.3848004 l 4.071601 -6.2292 h 4.1063995 l -5.7768 8.7 c -0.7656002 1.1484003 -1.4267998 2.0880003 -2.4708004 2.6448002 c 3.0972004 0.9744005 4.454401 2.8188 4.454401 5.9159994 c 0 4.1064014 -2.6448011 6.507601 -7.516801 6.507601 h -6.96 Z "/>
        </symbol>
        <symbol id="gABA6EF74FD2BD90082064AC2DAF8D236" overflow="visible">
            <path d="M 0 0m 2.6448 0 h 14.6856 v 3.0624 h -11.31 v 20.706 h -3.3756 Z "/>
        </symbol>
        <symbol id="g70F8948ED45F37930C97E9BFD5D91C93" overflow="visible">
            <path d="M 0 0m 2.5056 -7.8648 c 4.4196 5.1504 6.5772 10.1616 6.5772 15.868799 c 0 5.6724005 -2.4011998 10.753201 -7.0992 16.147202 h -1.8792 c 4.0368 -4.9764004 6.0204 -10.4400015 6.0204 -16.321201 c 0 -5.1851997 -1.8792 -10.370399 -5.6376 -15.694799 Z "/>
        </symbol>
        <symbol id="gFFC15253E801554D26F885CC2D235476" overflow="visible">
            <path d="M 0 0m 3.8976002 0 h 1.8624 v 13.113601 h -1.8624 Z "/>
        </symbol>
    </defs>
<foreignObject x="224.54488188976381" y="81.6" width="400" height="225"><video xmlns="http://www.w3.org/1999/xhtml" width="400" height="225" controls="controls"><source src="https://samplelib.com/preview/mp4/sample-5s.mp4" type="video/mp4"/></video></foreignObject></svg>
