<svg class="typst-doc" viewBox="0 0 841.8897637795276 473.56299212598424" width="841.8897637795276pt" height="473.56299212598424pt" xmlns="http://www.w3.org/2000/svg" xmlns:xlink="http://www.w3.org/1999/xlink" xmlns:h5="http://www.w3.org/1999/xhtml">
    <path class="typst-shape" fill="#ffffff" fill-rule="nonzero" d="M 0 0v 473.563 h 841.8898 v -473.563 Z "/>
    <g>
        <g class="typst-group">
            <g>
                <g class="typst-group" transform="matrix(1 0 0 1 322.95528188976385 164.9110960629921)">
                    <g>
                        <g class="typst-text" transform="matrix(1 0 0 -1 0 22.948800000000002)">
                            <use xlink:href="#gFAD82E63A24FE99539654B2B6F0BBB0D" x="0" y="0" fill="#000000" fill-rule="nonzero"/>
                            <use xlink:href="#g8755384FFD0C3DDAEA9EDC0A6A791C35" x="14.5488" y="0" fill="#000000" fill-rule="nonzero"/>
                            <use xlink:href="#gB3D64EAF60ECF335C11D29A1A621B066" x="25.368" y="0" fill="#000000" fill-rule="nonzero"/>
                            <use xlink:href="#gDA946ADE8E1B0D655ABEA209B21763A" x="37.632" y="0" fill="#000000" fill-rule="nonzero"/>
                            <use xlink:href="#gC007AA37D7B758CEC9DC7741B07C8BBB" x="44.687999999999995" y="0" fill="#000000" fill-rule="nonzero"/>
                            <use xlink:href="#gD80C9BDD71444850CDD1E02303D14D49" x="61.45439999999999" y="0" fill="#000000" fill-rule="nonzero"/>
                            <use xlink:href="#g5EA9FB4D6908F4A44001D27CCBE249B9" x="88.13279999999999" y="0" fill="#000000" fill-rule="nonzero"/>
                            <use xlink:href="#g5C2CADCFEB627B1E448F6DECE4E3C404" x="96.6" y="0" fill="#000000" fill-rule="nonzero"/>
                            <use xlink:href="#gEBDE7590BDC020541B1BF12BA88C3E8" x="103.65599999999999" y="0" fill="#000000" fill-rule="nonzero"/>
                            <use xlink:href="#gB1BCED7A27AAE1CC82C7A1A51036D95" x="124.7568" y="0" fill="#000000" fill-rule="nonzero"/>
                            <use xlink:href="#g5025160E86321CBFCA3424038D3C578" x="142.128" y="0" fill="#000000" fill-rule="nonzero"/>
                            <use xlink:href="#gD80C9BDD71444850CDD1E02303D14D49" x="158.52479999999997" y="0" fill="#000000" fill-rule="nonzero"/>
                            <use xlink:href="#g28C081EDFF61B4DC5DC05B379DB0684" x="185.20319999999998" y="0" fill="#000000" fill-rule="nonzero"/>
                        </g>
                    </g>
                </g>
                <g class="typst-text" transform="matrix(1 0 0 -1 355.4968818897638 246.25189606299213)">
                    <use xlink:href="#g1E93C985FD34D96AF4AAA81AAFEACCD2" x="0" y="0" fill="#000000" fill-rule="nonzero"/>
                    <use xlink:href="#gE9DEC020137388227A5AFDF55B17E5F8" x="14.232" y="0" fill="#000000" fill-rule="nonzero"/>
                    <use xlink:href="#g69840C32EEBD1D5523C6A8F293E033B9" x="19.296" y="0" fill="#000000" fill-rule="nonzero"/>
                    <use xlink:href="#gB433965AF8F0A8C035A7428483492627" x="29.688" y="0" fill="#000000" fill-rule="nonzero"/>
                    <use xlink:href="#g96DFEFD4108D786172209C3C5A1FA32" x="48.144" y="0" fill="#000000" fill-rule="nonzero"/>
                    <use xlink:href="#g4700CDC066A346B0D4B4E3FC9DDDAE38" x="59.208" y="0" fill="#000000" fill-rule="nonzero"/>
                    <use xlink:href="#g69840C32EEBD1D5523C6A8F293E033B9" x="71.232" y="0" fill="#000000" fill-rule="nonzero"/>
                    <use xlink:href="#gB5B0C6B11953084C34B37FD3F08094EB" x="81.624" y="0" fill="#000000" fill-rule="nonzero"/>
                    <use xlink:href="#g4700CDC066A346B0D4B4E3FC9DDDAE38" x="92.976" y="0" fill="#000000" fill-rule="nonzero"/>
                    <use xlink:href="#gEE4934D7ABE7CC8216D767A2D10A782C" x="105" y="0" fill="#000000" fill-rule="nonzero"/>
                    <use xlink:href="#gF4BD98D3FC2CE2066524CC3131D8FF51" x="116.976" y="0" fill="#000000" fill-rule="nonzero"/>
                    <use xlink:href="#gA26A8F0646E9C6F9258A811D1EE2C680" x="125.256" y="0" fill="#000000" fill-rule="nonzero"/>
                </g>
                <g class="typst-text" transform="matrix(1 0 0 -1 360.2248818897638 449.56299212598424)">
                    <use xlink:href="#g9A43CE0B45321457F279CFD982A328F9" x="0" y="0" fill="#000000" fill-rule="nonzero"/>
                    <use xlink:href="#g850FA42F85AB1ACDAD4391C139B0D424" x="10.920000000000002" y="0" fill="#000000" fill-rule="nonzero"/>
                    <use xlink:href="#gDCA9E424CD1779B62D146DA3575D0FA3" x="29.088" y="0" fill="#000000" fill-rule="nonzero"/>
                    <use xlink:href="#g9240D204837385DE7E4AD731BD40FF1" x="44.04" y="0" fill="#000000" fill-rule="nonzero"/>
                    <use xlink:href="#gF4BD98D3FC2CE2066524CC3131D8FF51" x="56.448" y="0" fill="#000000" fill-rule="nonzero"/>
                    <use xlink:href="#gA9CC17C57CA0D12F0CB6D610DF123CAC" x="65.208" y="0" fill="#000000" fill-rule="nonzero"/>
                    <use xlink:href="#gE9DEC020137388227A5AFDF55B17E5F8" x="70.24799999999999" y="0" fill="#000000" fill-rule="nonzero"/>
                    <use xlink:href="#g9A43CE0B45321457F279CFD982A328F9" x="81.35999999999999" y="0" fill="#000000" fill-rule="nonzero"/>
                    <use xlink:href="#gEA5E9585D6F3AB6EE397E157E8B5FE4E" x="93.23999999999998" y="0" fill="#000000" fill-rule="nonzero"/>
                    <use xlink:href="#g9A43CE0B45321457F279CFD982A328F9" x="104.87999999999998" y="0" fill="#000000" fill-rule="nonzero"/>
                    <use xlink:href="#gCD934778B0C72A61E4543A19F8DC805D" x="116.51999999999998" y="0" fill="#000000" fill-rule="nonzero"/>
                </g>
            </g>
        </g>
    </g>
    <defs id="glyph">
        <symbol id="gFAD82E63A24FE99539654B2B6F0BBB0D" overflow="visible">
            <path d="M 0 0m 9.4752 1.2432 c 0.10079956 -1.0752 0.67199993 -1.512 1.8143997 -1.512 c 1.1760006 0 2.2848005 0.4368 3.3936005 1.3776 v 1.848 c -0.6384001 -0.5040002 -1.0752001 -0.84000015 -1.5792007 -0.84000015 c -0.47039986 0 -0.6047993 0.5040002 -0.6047993 1.4784 v 6.4175997 c 0 3.7296 -1.5791998 5.4432 -5.5776 5.4432 c -2.1167998 0 -4.0992002 -0.6384001 -5.6784 -1.9152002 v -2.9903994 c 1.8143998 1.4111996 3.6288 2.1167994 5.3087997 2.1167994 c 2.0160003 0 2.8560004 -0.73919964 2.8560004 -2.5535994 c 0 -0.20160007 0 -0.40320015 -0.033599854 -0.6384001 l -3.5952005 -1.2096004 c -3.3263998 -1.1087995 -5.0063996 -2.7215996 -5.0063996 -4.8719993 c 0 -2.2175999 1.5455999 -3.6624 4.3343997 -3.6624 c 1.6128001 0 2.8896003 0.47039998 4.368 1.512 Z m -0.10079956 1.8479999 c -1.0080004 -0.77279997 -2.0496006 -1.1423999 -3.0912004 -1.1423999 c -1.4447999 0 -2.2847998 0.7055999 -2.2847998 1.9488 c 0 1.6127999 1.7807996 2.5199997 5.3760004 3.6287997 Z "/>
        </symbol>
        <symbol id="g8755384FFD0C3DDAEA9EDC0A6A791C35" overflow="visible">
            <path d="M 0 0m 10.2816 0.47039998 v 2.856 c -0.84000015 -0.50399995 -1.7136002 -0.7391999 -2.6208005 -0.7391999 c -1.9824 0 -2.2175999 0.8399999 -2.2175999 2.9904 v 6.9551997 h 4.7376 v 2.6208 h -4.7376 v 3.527999 h -0.33599997 l -5.3087997 -5.8463993 v -0.30239964 h 2.5872 v -7.1904 c 0 -3.9311996 0.94079995 -5.6447997 4.6368 -5.6447997 c 1.2095995 0 2.2847996 0.23519999 3.2592 0.77279997 Z "/>
        </symbol>
        <symbol id="gB3D64EAF60ECF335C11D29A1A621B066" overflow="visible">
            <path d="M 0 0m 1.9488 0 h 3.0239997 v 8.568 c 0.53760004 2.5199995 1.8815999 3.8976002 3.4607997 3.8976002 c 1.0416002 0 1.8816004 -0.40320015 2.8224 -1.2096004 l 1.6463995 2.6879997 c -1.2431993 0.9744005 -2.3519993 1.4784002 -3.4607992 1.4784002 c -1.7472 0 -2.9568 -1.1759996 -4.4688 -3.5615997 v 3.2928 h -3.0239997 Z "/>
        </symbol>
        <symbol id="gDA946ADE8E1B0D655ABEA209B21763A" overflow="visible">
            <path d="M 0 0m 2.016 0 h 3.024 v 15.1536 h -3.024 Z m -0.23520005 19.622398 c 0 -0.97439957 0.77279985 -1.7471981 1.7471999 -1.7471981 c 0.97440004 0 1.7472 0.77279854 1.7472 1.7471981 c 0 0.9744015 -0.77279997 1.7472 -1.7472 1.7472 c -0.97440004 0 -1.7471999 -0.77279854 -1.7471999 -1.7472 Z "/>
        </symbol>
        <symbol id="gC007AA37D7B758CEC9DC7741B07C8BBB" overflow="visible">
            <path d="M 0 0m 11.8272 1.8479999 v -1.8479999 h 3.0239992 v 15.1536 h -3.0239992 v -10.92 c -1.1087999 -1.3775997 -2.184 -1.9487998 -3.7631998 -1.9487998 c -2.1840005 0 -3.1920004 1.1424 -3.1920004 3.5951998 v 9.2736 h -3.0575998 v -10.0464 c 0 -3.3263998 2.0496 -5.3423996 5.3423996 -5.3423996 c 1.7471995 0 3.192 0.67199993 4.6704 2.0832 Z "/>
        </symbol>
        <symbol id="gD80C9BDD71444850CDD1E02303D14D49" overflow="visible">
            <path d="M 0 0m 1.9151999 0 h 3.0240002 v 10.92 c 1.1087999 1.3775997 2.184 1.9487991 3.7631993 1.9487991 c 2.184 0 3.1920004 -1.1423998 3.1920004 -3.5951996 v -9.2736 h 2.9903994 v 10.92 c 1.1088009 1.3775997 2.184001 1.9487991 3.7631998 1.9487991 c 2.184 0 3.1920013 -1.1423998 3.1920013 -3.5951996 v -9.2736 h 3.0239983 v 10.0464 c 0 3.3263998 -2.0495987 5.3423996 -5.3423996 5.3423996 c -1.9487991 0 -3.4608002 -0.84000015 -5.207999 -2.5536003 c -1.0416002 1.7807999 -2.4863997 2.5536003 -4.7039995 2.5536003 c -1.7472005 0 -3.1920004 -0.67199993 -4.6704 -2.0832005 v 1.8480005 h -3.0240002 Z "/>
        </symbol>
        <symbol id="g5EA9FB4D6908F4A44001D27CCBE249B9" overflow="visible">
            <path d="M 0 0m 2.2512 1.7135999 c 0 -1.1087999 0.8736 -1.9824 1.9823997 -1.9824 c 1.1087999 0 1.9824 0.8736 1.9824 1.9824 c 0 1.1087999 -0.8736 1.9824 -1.9824 1.9824 c -1.1087997 0 -1.9823997 -0.8736 -1.9823997 -1.9824 Z "/>
        </symbol>
        <symbol id="g5C2CADCFEB627B1E448F6DECE4E3C404" overflow="visible">
            <path d="M 0 0m -0.0672 -5.4768 l 1.8815999 -2.1503997 c 1.6464 0.7055998 2.4528 1.848 2.8223999 2.7887998 c 0.36959982 0.94079995 0.40320015 1.9488001 0.40320015 3.0576 v 16.9344 h -3.024 v -17.2032 c 0 -0.8399999 -0.033600092 -1.5792 -0.67200005 -2.3855999 c -0.3696 -0.47039986 -0.8064 -0.8064003 -1.4111999 -1.0416002 Z m 1.8479999 25.099197 c 0 -0.97439957 0.77279985 -1.7471981 1.7471999 -1.7471981 c 0.97440004 0 1.7472 0.77279854 1.7472 1.7471981 c 0 0.63840103 -0.33599997 1.2096004 -0.8736 1.512001 c -0.26880026 0.16799927 -0.57120013 0.23519897 -0.8736 0.23519897 c -0.97440004 0 -1.7471999 -0.77279854 -1.7471999 -1.7472 Z "/>
        </symbol>
        <symbol id="gEBDE7590BDC020541B1BF12BA88C3E8" overflow="visible">
            <path d="M 0 0m 0.94079995 1.0416 c 1.6464 -0.9072 3.3264 -1.344 5.2416 -1.344 c 3.3599997 0 5.4768 1.7808 5.4768 4.4016 c 0 2.3856 -1.4112005 3.2928 -3.9648 4.5695996 c -2.2512002 1.1087999 -3.4608002 1.6464005 -3.4608002 2.856 c 0 0.8064003 0.70560026 1.2768002 1.9824 1.2768002 c 1.4447999 0 2.9904003 -0.53759956 4.7376003 -1.5120001 v 2.9568005 c -1.5120001 0.8399992 -3.0576 1.2431993 -4.7712 1.2431993 c -3.2255998 0 -5.1071997 -1.6463995 -5.1071997 -4.1328 c 0 -2.2175999 1.2768 -3.3263998 3.6959996 -4.569599 c 2.184 -1.1424003 3.5952 -1.5792003 3.5952 -2.7552 c 0 -0.9744003 -0.90719986 -1.6128001 -2.4864001 -1.6128001 c -1.3104 0 -3.0239997 0.5711999 -4.9391994 1.848 Z "/>
        </symbol>
        <symbol id="gB1BCED7A27AAE1CC82C7A1A51036D95" overflow="visible">
            <path d="M 0 0m 12.3647995 0.84 v -0.84 h 3.0240002 v 22.9488 h -3.0240002 v -8.6352 c -1.1423998 0.8064003 -2.4192 1.1759996 -3.9312 1.1759996 c -4.3343997 0 -7.4255996 -3.1919994 -7.4255996 -7.8959994 c 0 -4.704 3.0911999 -7.896 7.4255996 -7.896 c 1.5120001 0 2.7888002 0.336 3.9312 1.1424 Z m 0 2.52 c -0.97439957 -0.7056 -1.9824 -1.0416 -3.1583996 -1.0416 c -3.0576 0 -4.9728003 1.9824 -4.9728003 5.3087997 c 0 3.3264003 1.9152002 5.3088 4.9728003 5.3088 c 1.1759996 0 2.184 -0.33600044 3.1583996 -1.0416002 Z "/>
        </symbol>
        <symbol id="g5025160E86321CBFCA3424038D3C578" overflow="visible">
            <path d="M 0 0m 4.1327996 9.2064 c 0.4368 2.3856 1.8816004 3.6623993 4.2000003 3.6623993 c 2.0831995 0 3.6287994 -1.4447994 3.8303995 -3.6623993 Z m 11.087999 -7.5936003 v 3.024 c -2.2511997 -1.4447999 -4.3344 -2.1504 -6.2495995 -2.1504 c -2.8560004 0 -4.6704 1.6800001 -4.8384004 4.5696 h 11.3568 v 0.4368 c 0 4.9728003 -2.8224 7.9631996 -7.1231995 7.9631996 c -4.4351997 0 -7.4256 -3.1247997 -7.4256 -7.6271996 c 0 -4.8719997 3.024 -8.1648 7.8624 -8.1648 c 2.2847996 0 4.4016 0.63839996 6.4175997 1.9487998 Z "/>
        </symbol>
        <symbol id="g28C081EDFF61B4DC5DC05B379DB0684" overflow="visible">
            <path d="M 0 0m 0.94079995 7.5936 c 0 -4.4351997 3.5616 -7.9296 8.064 -7.9296 c 2.1504002 0 4.0991993 0.77279997 5.644799 2.2848 c 1.512001 1.4783999 2.385601 3.5615997 2.385601 5.6447997 c 0 2.1167998 -0.84000015 4.032 -2.385601 5.5776 c -1.5119991 1.4783993 -3.494399 2.3183994 -5.644799 2.3183994 c -4.536 0 -8.064 -3.5279999 -8.064 -7.8959994 Z m 3.1583998 0 c 0 2.7887998 2.184 5.0063996 4.872 5.0063996 c 2.6879997 0 4.8719997 -2.2175999 4.8719997 -5.0063996 c 0 -2.8224 -2.184 -5.04 -4.8719997 -5.04 c -2.6880002 0 -4.872 2.184 -4.872 5.04 Z "/>
        </symbol>
        <symbol id="g1E93C985FD34D96AF4AAA81AAFEACCD2" overflow="visible">
            <path d="M 0 0m 6.744 -0.120000005 h 0.5999999 l 7.368 16.512001 h -2.4239998 l -5.208 -11.688 l -5.112 11.688 h -2.448 Z "/>
        </symbol>
        <symbol id="gE9DEC020137388227A5AFDF55B17E5F8" overflow="visible">
            <path d="M 0 0m 1.44 0 h 2.16 v 16.392 h -2.16 Z "/>
        </symbol>
        <symbol id="g69840C32EEBD1D5523C6A8F293E033B9" overflow="visible">
            <path d="M 0 0m 6.768 0.888 c 0.07200003 -0.768 0.48000002 -1.08 1.296 -1.08 c 0.84000015 0 1.632 0.312 2.4239998 0.98399997 v 1.3199999 c -0.45599937 -0.36 -0.76799965 -0.6 -1.1280003 -0.6 c -0.3359995 0 -0.4319992 0.36 -0.4319992 1.0560001 v 4.5839996 c 0 2.664 -1.1280003 3.888 -3.9840002 3.888 c -1.5120003 0 -2.9280002 -0.45600033 -4.056 -1.368 v -2.1359997 c 1.296 1.0079994 2.592 1.5120001 3.7919998 1.5120001 c 1.44 0 2.0400004 -0.5279999 2.0400004 -1.8240004 c 0 -0.14400005 0 -0.2880001 -0.024000168 -0.45599985 l -2.5679998 -0.86399984 c -2.3760004 -0.7920003 -3.5760002 -1.9440002 -3.5760002 -3.4800003 c 0 -1.584 1.1040001 -2.616 3.096 -2.616 c 1.1520002 0 2.064 0.336 3.1200001 1.08 Z m -0.07200003 1.3199999 c -0.72000027 -0.5519999 -1.4640002 -0.816 -2.2080002 -0.816 c -1.0319998 0 -1.632 0.50400007 -1.632 1.392 c 0 1.1520002 1.2720003 1.8000002 3.8400002 2.592 Z "/>
        </symbol>
        <symbol id="gB433965AF8F0A8C035A7428483492627" overflow="visible">
            <path d="M 0 0m 8.832 0.6 v -0.6 h 2.1599998 v 16.392 h -2.1599998 v -6.168 c -0.816 0.5760002 -1.7279997 0.84000015 -2.8079996 0.84000015 c -3.0960002 0 -5.304 -2.2799997 -5.304 -5.64 c 0 -3.3600001 2.208 -5.6400003 5.304 -5.6400003 c 1.0799999 0 1.9919996 0.24000001 2.8079996 0.81600004 Z m 0 1.8000001 c -0.6960001 -0.50400007 -1.4159999 -0.7440001 -2.2559996 -0.7440001 c -2.184 0 -3.5520003 1.416 -3.5520003 3.7919998 c 0 2.376 1.3680003 3.7919998 3.5520003 3.7919998 c 0.8399997 0 1.5599995 -0.23999977 2.2559996 -0.7439995 Z "/>
        </symbol>
        <symbol id="g96DFEFD4108D786172209C3C5A1FA32" overflow="visible">
            <path d="M 0 0m 0.912 1.272 c 1.3440001 -1.104 2.7120001 -1.56 4.44 -1.56 c 2.9040003 0 4.8479996 1.872 4.8479996 4.32 c 0 2.7600002 -1.4159994 3.8639998 -3.816 5.3519998 c -1.9919996 1.2480001 -3.2399998 1.9440002 -3.2399998 3.2400007 c 0 1.1039991 0.9840002 1.9439993 2.4959998 1.9439993 c 1.296 0 2.4720006 -0.57599926 3.8160005 -1.6560001 v 2.6640005 c -1.224 0.7439995 -2.4480004 1.1280003 -3.7200003 1.1280003 c -2.904 0 -4.848 -1.8720007 -4.848 -4.368 c 0 -2.3520002 1.44 -3.3360004 4.2 -5.1120005 c 1.776 -1.1279998 2.736 -1.776 2.736 -3.144 c 0 -1.296 -0.9839997 -2.112 -2.6159997 -2.112 c -1.608 0 -2.88 0.79199994 -4.296 2.4 Z "/>
        </symbol>
        <symbol id="g4700CDC066A346B0D4B4E3FC9DDDAE38" overflow="visible">
            <path d="M 0 0m 1.416 0 h 2.1599998 v 7.8 c 0.7679999 0.9840002 1.5839999 1.3920002 2.7120001 1.3920002 c 1.56 0 2.2559996 -0.816 2.2559996 -2.5680003 v -6.624 h 2.184 v 7.176 c 0 2.376 -1.4639997 3.8159995 -3.8159995 3.8159995 c -1.2480001 0 -2.2800002 -0.47999954 -3.3360002 -1.4879999 v 6.8880005 h -2.1599998 Z "/>
        </symbol>
        <symbol id="gB5B0C6B11953084C34B37FD3F08094EB" overflow="visible">
            <path d="M 0 0m 1.44 0 h 2.16 v 16.392 h -2.16 Z m 9.552 10.824 h -2.6639996 l -4.656 -5.064 l 5.2799997 -5.76 h 2.9520006 l -5.4480004 5.88 Z "/>
        </symbol>
        <symbol id="gEE4934D7ABE7CC8216D767A2D10A782C" overflow="visible">
            <path d="M 0 0m 8.448 1.32 v -1.32 h 2.1599998 v 10.824 h -2.1599998 v -7.8 c -0.7919998 -0.98399997 -1.56 -1.392 -2.6879997 -1.392 c -1.5600004 0 -2.2800002 0.816 -2.2800002 2.5679998 v 6.6240005 h -2.184 v -7.1760006 c 0 -2.376 1.464 -3.816 3.816 -3.816 c 1.2480001 0 2.2800002 0.48000002 3.336 1.488 Z "/>
        </symbol>
        <symbol id="gF4BD98D3FC2CE2066524CC3131D8FF51" overflow="visible">
            <path d="M 0 0m 1.392 0 h 2.16 v 6.12 c 0.38400006 1.8000002 1.3439999 2.7840004 2.4720001 2.7840004 c 0.74399996 0 1.3439999 -0.2880001 2.0159998 -0.8640003 l 1.1759996 1.9200001 c -0.88799953 0.6960001 -1.6799994 1.0559998 -2.4719996 1.0559998 c -1.2480001 0 -2.112 -0.84000015 -3.192 -2.5439997 v 2.3520002 h -2.16 Z "/>
        </symbol>
        <symbol id="gA26A8F0646E9C6F9258A811D1EE2C680" overflow="visible">
            <path d="M 0 0m 0.672 5.4240003 c 0 -3.1680002 2.5440001 -5.6640005 5.76 -5.6640005 c 1.5359998 0 2.9279995 0.55200005 4.0319996 1.632 c 1.0799999 1.056 1.7040005 2.5440001 1.7040005 4.0320005 c 0 1.5119996 -0.6000004 2.8799996 -1.7040005 3.9839997 c -1.0799999 1.0559998 -2.4959998 1.6560001 -4.0319996 1.6560001 c -3.2400002 0 -5.76 -2.5200005 -5.76 -5.64 Z m 2.256 0 c 0 1.9919996 1.56 3.5759997 3.48 3.5759997 c 1.9200001 0 3.4800005 -1.5840001 3.4800005 -3.5759997 c 0 -2.0160003 -1.5600004 -3.6000004 -3.4800005 -3.6000004 c -1.9200001 0 -3.48 1.5600001 -3.48 3.6000004 Z "/>
        </symbol>
        <symbol id="g9A43CE0B45321457F279CFD982A328F9" overflow="visible">
            <path d="M 0 0m 0.816 0 h 10.416 v 2.376 h -6.1920004 c 3.1920004 3.744 5.04 6.504 5.04 9.336 c 0 2.9759998 -1.9679995 4.9680004 -4.848 4.9680004 c -1.3439999 0 -2.6399999 -0.47999954 -3.9839997 -1.4639997 v -2.8080006 c 1.248 1.3199997 2.4720001 2.0159998 3.672 2.0159998 c 1.704 0 2.808 -1.1759996 2.808 -2.9759998 c 0 -1.3920002 -0.7680001 -3.12 -2.256 -5.256 c -0.816 -1.1759996 -2.568 -3.096 -4.656 -6.192 Z "/>
        </symbol>
        <symbol id="g850FA42F85AB1ACDAD4391C139B0D424" overflow="visible">
            <path d="M 0 0m 1.584 0.672 c 1.176 -0.624 2.256 -0.96 3.4559999 -0.96 c 3.1920004 0 5.2799997 2.1360002 5.2799997 5.136 c 0 1.776 -0.8399992 3.192 -2.3279996 3.9120002 c 1.296 0.84000015 1.9679999 2.0880003 1.9679999 3.5999994 c 0 2.5440006 -1.8959999 4.3200006 -4.896 4.3200006 c -1.0560002 0 -2.088 -0.26399994 -3.1680002 -0.7680006 v -2.1119995 c 1.032 0.43200016 1.896 0.7439995 2.7600002 0.7439995 c 1.848 0 3 -1.0319996 3 -2.3999996 c 0 -1.5360003 -1.2000003 -2.592 -3.3120003 -2.592 v -2.0640001 c 2.328 -0.14400005 3.48 -1.0559998 3.48 -2.712 c 0 -1.5840001 -1.0079999 -2.616 -2.712 -2.616 c -1.0559998 0 -2.2319999 0.33599997 -3.5279999 1.0079999 Z "/>
        </symbol>
        <symbol id="gDCA9E424CD1779B62D146DA3575D0FA3" overflow="visible">
            <path d="M 0 0m -0.528 0 h 2.4 l 2.088 4.824 h 6.984 l 2.1119995 -4.824 h 2.4240007 l -7.200001 16.392 h -1.7039995 Z m 5.4 6.936 l 2.52 5.9040003 l 2.592 -5.9040003 Z "/>
        </symbol>
        <symbol id="g9240D204837385DE7E4AD731BD40FF1" overflow="visible">
            <path d="M 0 0m 1.416 -5.448 h 2.184 v 6.048 c 0.81599975 -0.57600003 1.7039998 -0.81600004 2.7839997 -0.81600004 c 3.0960007 0 5.304 2.2800002 5.304 5.6400003 c 0 3.3600001 -2.2079992 5.64 -5.304 5.64 c -1.0799999 0 -1.9679999 -0.26399994 -2.7839997 -0.84000015 v 0.6000004 h -2.184 Z m 2.184 13.896 c 0.69599986 0.5039997 1.392 0.74400043 2.232 0.74400043 c 2.1839995 0 3.5519996 -1.3920002 3.5519996 -3.7680001 c 0 -2.3520002 -1.368 -3.7680001 -3.5519996 -3.7680001 c -0.84000015 0 -1.5360003 0.24000001 -2.232 0.7199999 Z "/>
        </symbol>
        <symbol id="gA9CC17C57CA0D12F0CB6D610DF123CAC" overflow="visible">
            <path d="M 0 0m 1.44 0 h 2.16 v 10.824 h -2.16 Z m -0.1680001 14.016 c 0 -0.6960001 0.55200005 -1.2480001 1.248 -1.2480001 c 0.6960001 0 1.2480001 0.55200005 1.2480001 1.2480001 c 0 0.6960001 -0.55200005 1.2480001 -1.2480001 1.2480001 c -0.696 0 -1.248 -0.55200005 -1.248 -1.2480001 Z "/>
        </symbol>
        <symbol id="gEA5E9585D6F3AB6EE397E157E8B5FE4E" overflow="visible">
            <path d="M 0 0m 0.672 8.184 c 0 -5.424 2.232 -8.472 5.376 -8.472 c 3.1440005 0 5.376 3.0479999 5.376 8.472 c 0 5.424 -2.2319994 8.472 -5.376 8.472 c -3.1439998 0 -5.376 -3.0480003 -5.376 -8.472 Z m 2.352 0 c 0 4.1280003 1.1520002 6.264 3.024 6.264 c 1.8720002 0 3.0240006 -2.1359997 3.0240006 -6.264 c 0 -4.128 -1.1520004 -6.24 -3.0240006 -6.24 c -1.8719997 0 -3.024 2.1120002 -3.024 6.24 Z "/>
        </symbol>
        <symbol id="gCD934778B0C72A61E4543A19F8DC805D" overflow="visible">
            <path d="M 0 0m 3.816 8.856 c 0.72000027 2.4720001 2.448 4.392 5.064 6.1920004 l -1.2719998 1.6079998 c -4.464 -2.9759998 -6.7200003 -6.816 -6.7200003 -11.1119995 c 0 -3.528 2.0640001 -5.808 5.112 -5.808 c 3.0240002 0 5.184 2.112 5.184 5.016 c 0 2.7840004 -1.9440002 4.8720007 -4.656 4.8720007 c -0.76799965 0 -1.6799998 -0.2640009 -2.712 -0.7680006 Z m -0.408 -2.52 c 0.7680001 0.72000027 1.6560001 1.0799999 2.736 1.0799999 c 1.5360003 0 2.6639996 -1.1279998 2.6639996 -2.784 c 0 -1.632 -1.0559998 -2.712 -2.6159997 -2.712 c -1.7279997 0 -2.9039998 1.3439999 -2.9039998 3.408 c 0 0.3119998 0.04799986 0.64799976 0.119999886 1.0079999 Z "/>
        </symbol>
    </defs>
</svg>
