<!-- Modified eraser icon from https://thenounproject.com/icon/eraser-7656712/ -->
<svg xmlns="http://www.w3.org/2000/svg" version="1.1" width="32" height="32" viewBox="-5.0 -10.0 110.0 135.0">
 <!-- White silhouette outline (drawn first so it forms a halo around the shape) -->
 <path fill="#ffffff" stroke="#ffffff" stroke-width="10" stroke-linejoin="round" stroke-linecap="round"
       d="m36.484 82.832-19.316-19.332c-1.4844-1.4805-2.3203-3.4922-2.3203-5.5898 0-2.1016 0.83594-4.1133 2.3203-5.5938l8.0352-8.0352 0.050781-0.035156 0.035156-0.050782 27.043-27.012c1.4805-1.4844 3.4883-2.3164 5.5859-2.3164 2.0938 0 4.1016 0.83203 5.582 2.3164l19.367 19.367 0.035157 0.050781c2.9766 3.1016 2.9336 8.0156-0.10156 11.066l-27.051 27.047-8.1719 8.1719-0.050781 0.035156 0.007812-0.003906c-3.1094 2.9688-8.0156 2.9258-11.066-0.10156z"/>

 <!-- Gray body patch -->
 <path fill="#d3d3d3" d="m36.484 82.832-19.316-19.332c-1.4844-1.4805-2.3203-3.4922-2.3203-5.5898 0-2.1016 0.83594-4.1133 2.3203-5.5938l8.0352-8.0352 0.050781-0.035156 0.035156-0.050782 27.043-27.012c1.4805-1.4844 3.4883-2.3164 5.5859-2.3164 2.0938 0 4.1016 0.83203 5.582 2.3164l19.367 19.367 0.035157 0.050781c2.9766 3.1016 2.9336 8.0156-0.10156 11.066l-27.051 27.047-8.1719 8.1719-0.050781 0.035156 0.007812-0.003906c-3.1094 2.9688-8.0156 2.9258-11.066-0.10156z"/>

 <!-- White tip patch -->
 <path fill="#ffffff" d="m19.715037 60.984262 19.285 19.301c1.668 1.6523 4.3555 1.6758 6.0508 0.046875l6.8516-6.8516-25.398-25.418-6.8047 6.8047c-0.80469 0.8125-1.2539 1.9062-1.25 3.0508 0 1.1172 0.41797 2.2344 1.25 3.0664z"/>

 <!-- Black contour (stroke only, on top) -->
 <path fill="none" stroke="#000000" stroke-width="3" stroke-linejoin="round" stroke-linecap="round"
       d="m36.484 82.832-19.316-19.332c-1.4844-1.4805-2.3203-3.4922-2.3203-5.5898 0-2.1016 0.83594-4.1133 2.3203-5.5938l8.0352-8.0352 0.050781-0.035156 0.035156-0.050782 27.043-27.012c1.4805-1.4844 3.4883-2.3164 5.5859-2.3164 2.0938 0 4.1016 0.83203 5.582 2.3164m-43.785 43.801 19.285 19.301c1.668 1.6523 4.3555 1.6758 6.0508 0.046875l6.8516-6.8516-25.398-25.418-6.8047 6.8047c-0.80469 0.8125-1.2539 1.9062-1.25 3.0508 0 1.1172 0.41797 2.2344 1.25 3.0664zm35.168-41.266-25.832 25.816 25.418 25.398 25.801-25.801h-0.003906c1.6602-1.6641 1.6914-4.3477 0.066406-6.0508l-19.367-19.367c-1.6875-1.6719-4.4102-1.6719-6.0977 0zm8.6328-2.5352 19.367 19.367 0.035157 0.050781c2.9766 3.1016 2.9336 8.0156-0.10156 11.066l-27.051 27.047-8.1719 8.1719-0.050781 0.035156 0.007812-0.003906c-3.1094 2.9688-8.0156 2.9258-11.066-0.10156m-11.199-38.602c0.71094-0.65625 1.8125-0.63672 2.5 0.050781"/>
</svg>
